<svg xmlns="http://www.w3.org/2000/svg" viewBox="0 0 1024 1024" width="1024" height="1024">
  <title>Teamplay Talk waveform layer design</title>
  <path d="M132 552.8C133 554.1 138.3 561.2 140.3 563.4C142.3 565.6 146.6 569.4 148.6 570.8C150.6 572.2 155 574.3 157 574.9C159 575.5 163.3 576 165.3 575.8C167.3 575.6 171.6 574.4 173.6 573.5C175.6 572.7 179.9 570 181.9 568.4C183.9 566.9 188.2 562.9 190.2 560.8C192.2 558.8 196.5 553.7 198.5 551.2C200.5 548.7 204.9 542.8 206.9 540C208.9 537.1 213.2 530.7 215.2 527.7C217.2 524.7 221.5 518 223.5 515C225.5 511.9 229.8 505.3 231.8 502.3C233.8 499.3 238.1 492.9 240.1 490.2C242.1 487.4 246.5 481.6 248.5 479.1C250.5 476.6 254.8 471.6 256.8 469.5C258.8 467.4 263.1 463.2 265.1 461.6C267.1 460 271.4 456.9 273.4 455.7C275.4 454.6 279.7 452.7 281.7 452.1C283.7 451.4 288 450.7 290 450.6C292 450.5 296.4 450.9 298.4 451.3C300.4 451.7 304.7 453.1 306.7 454C308.7 454.9 313 457.3 315 458.6C317 459.8 321.3 463.1 323.3 464.7C325.3 466.3 329.6 470.2 331.6 472.1C333.6 473.9 338 478.3 340 480.3C342 482.4 346.3 487 348.3 489.1C350.3 491.2 354.6 495.8 356.6 497.9C358.6 500 362.9 504.6 364.9 506.6C366.9 508.6 371.2 512.8 373.2 514.6C375.2 516.4 379.5 520.2 381.5 521.7C383.5 523.3 387.9 526.5 389.9 527.8C391.9 529 396.2 531.5 398.2 532.5C400.2 533.4 404.5 535.1 406.5 535.7C408.5 536.4 412.8 537.3 414.8 537.6C416.8 537.8 421.1 538 423.1 537.9C425.1 537.8 429.5 537.3 431.5 536.9C433.5 536.5 437.8 535.3 439.8 534.7C441.8 534 446.1 532.3 448.1 531.4C450.1 530.5 454.4 528.3 456.4 527.3C458.4 526.2 462.7 523.7 464.7 522.6C466.7 521.4 471 518.8 473 517.6C475 516.4 479.4 513.7 481.4 512.5C483.4 511.3 487.7 508.8 489.7 507.6C491.7 506.5 496 504.2 498 503.1C500 502.1 504.3 497.1 506.3 499.2C508.3 501.3 512.6 517.8 514.6 520.6C516.6 523.4 521 522.3 523 522.8C525 523.3 529.3 524.3 531.3 524.7C533.3 525.1 537.6 525.9 539.6 526.2C541.6 526.5 545.9 527 547.9 527.2C549.9 527.4 554.2 527.7 556.2 527.8C558.2 527.9 562.5 527.9 564.5 527.9C566.5 527.9 570.9 527.7 572.9 527.5C574.9 527.4 579.2 527 581.2 526.7C583.2 526.5 587.5 525.8 589.5 525.5C591.5 525.1 595.8 524.2 597.8 523.8C599.8 523.4 604.1 522.3 606.1 521.8C608.1 521.3 612.5 520 614.5 519.5C616.5 518.9 620.8 517.5 622.8 516.9C624.8 516.3 629.1 514.9 631.1 514.2C633.1 513.5 637.4 512.1 639.4 511.4C641.4 510.7 645.7 509.2 647.7 508.6C649.7 507.9 654 506.5 656 505.8C658 505.2 662.4 503.8 664.4 503.2C666.4 502.5 670.7 501.3 672.7 500.7C674.7 500.1 679 499 681 498.5C683 498 687.3 497 689.3 496.6C691.3 496.2 695.6 495.4 697.6 495C699.6 494.7 704 494.1 706 493.9C708 493.6 712.3 493.2 714.3 493.1C716.3 492.9 720.6 492.7 722.6 492.7C724.6 492.6 728.9 492.6 730.9 492.7C732.9 492.8 737.2 493 739.2 493.1C741.2 493.3 745.5 493.7 747.5 493.9C749.5 494.1 753.9 494.7 755.9 495C757.9 495.3 762.2 496 764.2 496.4C766.2 496.8 770.5 497.6 772.5 498C774.5 498.5 778.8 499.4 780.8 499.9C782.8 500.3 787.1 501.3 789.1 501.8C791.1 502.3 795.5 503.3 797.5 503.8C799.5 504.3 803.8 505.4 805.8 505.8C807.8 506.3 812.1 507.4 814.1 507.8C816.1 508.3 820.4 509.2 822.4 509.6C824.4 510.1 828.7 510.9 830.7 511.3C832.7 511.7 837 512.4 839 512.8C841 513.1 845.4 513.7 847.4 514C849.4 514.2 853.7 514.7 855.7 514.8C857.7 515 863 515.4 864 515.4" fill="none" stroke="#7678ed" stroke-width="36" stroke-linecap="round" stroke-linejoin="round"/>
</svg>
