<svg xmlns="http://www.w3.org/2000/svg" viewBox="0 0 1024 1024" width="1024" height="1024"><defs><linearGradient id="wg" gradientUnits="userSpaceOnUse" x1="0" y1="0" x2="1844" y2="1634"><stop offset="0.0" stop-color="#3730a3"/><stop offset="1.0" stop-color="#8b5cf6"/></linearGradient></defs><g transform="translate(103.0 140.0) scale(0.455)"><path d="M808.218 1235.31C1039.76 1137.05 1371 982.131 1724.1 1223.27C1792.51 1269.99 1810.09 1363.32 1763.37 1431.73C1716.65 1500.15 1623.32 1517.73 1554.91 1471.01C1354.5 1334.15 1180.49 1403.23 925.409 1511.47C808.15 1561.23 665.723 1621.97 517.716 1632.6C357.204 1644.12 197.802 1597.23 47.5386 1456.69C-12.965 1400.1 -16.1392 1305.18 40.4487 1244.68C97.0368 1184.17 191.959 1181 252.462 1237.59C341.699 1321.05 419.047 1338.91 496.238 1333.37C585.934 1326.93 682.165 1288.8 808.218 1235.31Z" fill="url(#wg)"/></g></svg>